<?xml version="1.0" standalone="no"?>
<!DOCTYPE svg PUBLIC "-//W3C//DTD SVG 20010904//EN"
 "http://www.w3.org/TR/2001/REC-SVG-20010904/DTD/svg10.dtd">
<svg version="1.0" xmlns="http://www.w3.org/2000/svg"
 width="1936.000000pt" height="1936.000000pt" viewBox="0 0 1936.000000 1936.000000"
 preserveAspectRatio="xMidYMid meet">
<metadata>
Created by potrace 1.14, written by Peter Selinger 2001-2017
</metadata>
<g transform="translate(0.000000,1936.000000) scale(0.100000,-0.100000)"
fill="#000000" stroke="none">
<path d="M3693 12292 l-23 -3 0 -1984 c0 -1578 3 -1984 13 -1988 6 -2 24 -1
38 3 15 5 32 4 39 0 7 -4 24 -5 39 -1 26 7 74 6 96 -3 6 -2 18 0 25 4 7 5 23
5 34 0 12 -4 30 -4 41 0 11 4 32 4 47 -1 15 -4 30 -4 33 1 3 4 20 4 39 0 19
-4 40 -4 46 0 7 4 25 4 40 0 15 -4 33 -4 40 0 7 5 23 5 34 0 12 -4 30 -4 41 0
11 4 32 4 47 -1 15 -4 30 -4 33 1 2 4 19 5 36 1 17 -3 49 -5 70 -3 l39 4 0
820 c0 818 0 819 22 871 33 79 100 175 170 244 100 98 175 147 281 182 74 25
182 31 230 12 15 -6 27 -8 27 -5 0 4 7 1 15 -6 8 -7 15 -10 15 -6 0 13 63 -26
106 -66 74 -68 112 -148 134 -284 8 -49 12 -334 13 -915 l2 -844 30 -5 c17 -4
42 -3 56 1 15 4 32 4 38 0 7 -4 31 -5 54 -1 24 3 55 3 69 -1 14 -4 31 -3 38 1
8 5 23 5 34 0 12 -4 30 -4 41 0 11 4 32 4 47 -1 15 -4 30 -4 33 1 3 4 20 4 39
0 19 -4 40 -4 46 0 7 4 25 4 40 0 15 -4 33 -4 40 0 7 5 23 5 34 0 12 -4 30 -4
41 0 11 4 32 4 47 -1 15 -4 30 -4 33 1 3 4 20 5 37 1 47 -10 68 -3 69 22 0 12
1 436 1 942 1 835 -3 1077 -18 1146 -2 13 -7 42 -10 64 -3 22 -13 69 -21 105
-9 36 -16 71 -16 78 0 6 -4 12 -9 12 -4 0 -7 3 -6 8 4 20 -74 173 -116 227
-109 142 -292 257 -446 281 -19 3 -55 10 -80 14 -49 9 -334 6 -390 -5 -64 -12
-168 -42 -225 -65 -44 -18 -60 -23 -67 -22 -5 1 -8 -2 -8 -7 0 -5 -10 -11 -23
-15 -44 -11 -206 -127 -278 -199 -81 -81 -89 -91 -134 -156 l-30 -44 -3 791
c-2 746 -3 792 -20 792 -556 4 -812 4 -829 2z"/>
<path d="M15132 12292 l-313 -2 4 -1713 c1 -941 6 -1723 11 -1737 4 -14 9 -34
11 -45 5 -34 35 -117 62 -170 93 -186 274 -305 519 -342 64 -10 302 -9 379 0
51 7 97 15 245 43 47 9 165 46 243 76 l79 30 -7 37 c-4 20 -9 50 -11 66 -3 17
-7 41 -10 55 -3 14 -8 39 -11 55 -2 17 -6 41 -9 55 -3 14 -7 42 -10 62 -2 21
-16 94 -29 164 -13 69 -24 129 -23 133 3 26 -5 28 -41 11 -100 -49 -250 -68
-353 -46 -43 9 -112 65 -134 108 -45 87 -44 38 -44 1637 0 833 -2 1516 -4
1518 -6 6 -230 8 -554 5z"/>
<path d="M1577 12214 c-1 -1 -33 -5 -72 -8 -38 -4 -86 -8 -105 -11 -49 -5
-173 -32 -239 -52 -31 -9 -61 -18 -67 -19 -6 -1 -29 -9 -50 -19 -108 -47 -159
-70 -164 -75 -3 -3 -16 -10 -30 -17 -74 -32 -340 -255 -340 -284 0 -4 -6 -14
-13 -21 -84 -86 -197 -325 -221 -466 -3 -15 -8 -43 -12 -62 -12 -68 -19 -295
-10 -355 6 -41 20 -130 21 -135 25 -95 99 -261 124 -280 4 -3 18 -21 31 -40
85 -122 352 -302 540 -365 3 -1 19 -8 35 -15 17 -7 35 -14 40 -16 6 -2 48 -17
95 -33 93 -33 91 -32 105 -35 6 -1 17 -5 25 -9 15 -6 208 -63 265 -77 86 -23
270 -82 340 -110 249 -99 347 -196 346 -341 -1 -191 -148 -281 -461 -283 -126
0 -274 9 -290 19 -3 2 -21 6 -40 9 -19 3 -62 13 -95 22 -33 8 -67 17 -75 19
-37 8 -233 76 -305 105 -76 31 -290 140 -337 171 -31 22 -61 39 -67 39 -5 0
-11 4 -13 8 -2 4 -17 17 -34 29 l-30 22 -189 -377 c-104 -207 -193 -380 -197
-383 -5 -3 6 -17 24 -31 35 -26 226 -136 243 -139 6 -2 35 -15 66 -30 30 -15
67 -31 82 -34 15 -4 27 -11 27 -15 0 -4 10 -10 23 -13 12 -3 83 -26 157 -52
356 -123 689 -179 1045 -178 93 1 221 9 265 18 14 3 45 7 70 10 51 5 68 8 165
31 165 38 335 109 458 191 76 51 80 54 170 142 53 51 157 189 157 207 0 4 6
15 13 23 14 17 66 133 73 164 2 9 6 25 8 35 34 131 39 178 40 342 0 214 -5
255 -50 395 -27 80 -90 212 -114 235 -3 3 -21 25 -40 50 -19 24 -55 62 -79 85
-24 22 -49 45 -55 51 -29 27 -169 116 -241 152 -77 38 -291 122 -315 124 -3 0
-13 4 -23 10 -10 5 -26 11 -35 13 -23 6 -263 76 -282 83 -8 3 -22 6 -30 8
-119 23 -455 132 -535 173 -91 47 -176 131 -194 191 -34 116 -1 242 84 312 86
72 178 93 390 92 159 -1 191 -5 307 -34 172 -44 488 -169 488 -193 0 -6 3 -8
6 -4 6 6 88 -36 115 -59 8 -8 21 -14 27 -14 7 0 12 -4 12 -10 0 -5 6 -10 14
-10 7 0 19 -7 26 -15 21 -25 34 -17 62 43 15 31 53 107 86 167 237 446 262
494 262 502 0 9 -31 27 -150 90 -47 25 -91 50 -99 56 -8 7 -15 10 -15 8 -1 -2
-32 11 -71 28 -120 56 -395 153 -468 165 -18 3 -48 10 -67 16 -19 6 -48 13
-65 16 -16 2 -41 7 -55 11 -14 3 -34 7 -45 8 -11 2 -40 6 -65 9 -99 15 -140
18 -258 20 -67 1 -124 1 -125 0z"/>
<path d="M12789 12085 c-1 0 -2 -201 -3 -447 0 -245 -5 -450 -9 -455 -5 -4
-86 -8 -180 -8 l-172 0 -2 -310 c-2 -170 -1 -319 2 -330 4 -19 12 -20 182 -18
l178 1 1 -791 c0 -436 3 -812 7 -837 13 -94 33 -169 53 -209 8 -14 14 -30 14
-34 0 -16 73 -121 117 -168 72 -77 167 -131 314 -178 117 -37 378 -45 539 -17
14 3 41 7 60 10 49 8 228 55 280 74 8 3 21 6 28 8 8 1 21 6 30 10 9 4 22 8 27
10 6 1 24 8 40 15 17 7 32 13 35 14 65 17 120 44 120 59 0 13 -26 123 -56 241
-9 33 -17 69 -19 80 -2 11 -13 58 -25 105 -12 47 -23 92 -25 100 -18 86 -40
150 -49 146 -25 -10 -137 -55 -141 -56 -3 0 -10 -3 -17 -5 -55 -20 -153 -34
-217 -31 -135 6 -210 62 -236 177 -9 37 -13 1256 -5 1269 3 4 134 7 291 6
l286 -1 2 45 c2 25 3 50 2 55 -1 25 -3 93 -2 125 1 51 1 237 0 295 -1 28 -1
69 -1 92 0 31 -4 43 -16 46 -9 2 -140 4 -289 3 -174 -1 -274 3 -276 9 -2 6 -2
210 -2 455 l1 445 -433 0 c-238 0 -433 0 -434 0z"/>
<path d="M8175 11219 c-127 -19 -161 -25 -220 -40 -87 -22 -195 -63 -297 -114
-93 -47 -135 -72 -252 -155 -11 -8 -31 -24 -42 -35 -12 -11 -42 -40 -68 -63
-138 -130 -268 -334 -331 -517 -15 -44 -30 -87 -33 -95 -6 -17 -5 -15 -25
-100 -8 -36 -19 -90 -24 -120 -10 -69 -10 -411 1 -465 4 -22 9 -53 12 -70 16
-100 64 -251 116 -365 116 -253 330 -483 573 -615 39 -21 75 -41 80 -45 34
-24 272 -104 339 -114 21 -4 41 -8 45 -10 3 -2 30 -7 59 -10 28 -3 76 -9 105
-12 104 -13 381 -6 472 11 195 38 313 74 445 139 113 56 120 60 225 137 147
107 264 236 357 392 21 34 42 68 48 75 6 6 8 12 5 12 -3 0 6 23 20 50 23 45
81 207 90 249 2 9 8 37 14 62 24 103 34 214 34 349 -1 109 -7 195 -18 250 -3
14 -7 36 -10 50 -3 14 -7 35 -10 48 -3 12 -7 32 -10 43 -35 161 -157 409 -270
549 -36 44 -189 195 -225 221 -85 62 -140 99 -149 99 -5 0 -11 4 -13 8 -6 15
-222 115 -298 137 -55 17 -182 46 -215 50 -22 3 -51 8 -65 11 -38 9 -408 12
-465 3z m378 -749 c101 -27 184 -76 256 -148 85 -86 92 -95 135 -183 61 -124
80 -223 80 -404 0 -124 -18 -226 -55 -313 -10 -23 -18 -43 -17 -45 4 -5 -58
-106 -91 -147 -70 -89 -138 -142 -238 -184 -82 -34 -112 -40 -223 -40 -138 0
-202 14 -295 65 -201 110 -322 322 -342 599 -6 86 -6 76 1 155 6 79 8 90 32
177 64 234 229 407 446 468 81 23 228 23 311 0z"/>
<path d="M11977 11214 c-2 -2 -18 -5 -37 -8 -116 -15 -310 -99 -378 -163 -7
-7 -17 -13 -22 -13 -5 0 -51 -42 -102 -93 -91 -91 -173 -200 -217 -285 -12
-23 -23 -42 -26 -42 -2 0 -4 116 -4 258 1 141 0 268 0 282 l-1 26 -399 -1
-398 0 0 -1428 c0 -1027 3 -1427 11 -1424 6 2 23 0 38 -4 15 -4 30 -4 33 1 3
4 20 4 39 0 19 -4 40 -4 46 0 7 4 25 4 40 0 15 -4 33 -4 40 0 7 5 23 5 34 0
12 -4 30 -4 41 0 11 4 32 4 47 -1 15 -4 30 -4 33 1 3 4 21 4 40 0 19 -4 37 -4
40 0 3 5 18 5 33 1 15 -5 36 -5 47 -1 11 4 24 5 28 3 8 -5 93 -7 112 -3 6 1
15 1 20 0 9 -2 114 0 140 2 7 1 10 293 9 857 l-1 856 24 35 c53 80 223 220
266 220 8 0 20 7 27 15 7 9 15 13 18 11 2 -3 17 1 31 9 46 24 212 68 301 80
19 3 42 7 50 10 8 2 60 7 115 11 55 3 102 8 105 11 3 2 5 178 5 389 0 357 -1
385 -18 390 -16 5 -205 3 -210 -2z"/>
<path d="M16350 11165 c0 -5 23 -68 51 -140 28 -71 52 -134 53 -140 2 -5 8
-23 15 -40 7 -16 18 -46 26 -65 7 -19 25 -66 39 -105 15 -38 42 -110 61 -160
91 -242 117 -312 125 -330 5 -11 32 -81 60 -155 28 -74 54 -144 59 -155 5 -11
14 -33 19 -50 6 -16 27 -73 47 -125 20 -52 45 -117 56 -145 26 -70 89 -236 99
-260 4 -11 18 -47 30 -80 12 -33 26 -69 31 -80 4 -11 22 -58 39 -105 17 -47
35 -93 41 -102 5 -10 9 -22 9 -27 0 -5 8 -26 17 -47 9 -22 17 -41 18 -44 0 -3
6 -18 12 -35 25 -61 36 -90 38 -100 3 -11 51 -136 65 -170 60 -139 74 -194 60
-230 -7 -17 -14 -40 -16 -52 -2 -12 -9 -35 -16 -50 -6 -16 -13 -37 -15 -48 -8
-42 -86 -184 -120 -218 -63 -64 -114 -82 -228 -82 -55 0 -120 3 -145 7 -44 6
-180 40 -211 52 -14 6 -15 -31 -15 -363 1 -337 4 -385 24 -387 4 0 39 -10 77
-21 139 -43 372 -60 515 -39 19 3 52 7 72 10 66 10 231 67 307 108 63 33 138
83 199 133 57 47 164 165 210 230 38 56 112 200 112 220 0 8 4 15 9 15 5 0 12
15 16 33 10 42 6 31 63 202 27 83 123 373 212 645 89 272 191 583 227 690 35
107 66 203 68 213 2 9 7 22 10 27 3 5 8 18 10 27 2 10 35 113 73 228 38 116
140 426 227 690 86 264 163 497 170 517 8 20 16 47 19 60 2 13 7 30 10 38 6
14 -37 16 -398 15 -222 0 -407 -3 -410 -6 -3 -3 -7 -14 -9 -25 -2 -10 -7 -26
-10 -34 -4 -8 -9 -26 -11 -40 -4 -21 -46 -178 -61 -230 -2 -8 -18 -64 -34
-125 -16 -60 -48 -177 -71 -260 -22 -82 -43 -157 -44 -165 -4 -15 -40 -148
-57 -210 -5 -19 -11 -42 -13 -50 -2 -8 -9 -35 -16 -60 -7 -25 -14 -53 -15 -62
-2 -10 -7 -23 -10 -28 -3 -5 -8 -18 -10 -28 -1 -9 -8 -37 -15 -62 -7 -25 -14
-52 -15 -60 -2 -8 -12 -46 -23 -85 -37 -134 -114 -418 -117 -434 -2 -9 -13
-45 -23 -81 l-19 -65 -17 60 c-10 33 -36 116 -58 184 -22 69 -41 130 -43 135
-1 6 -5 18 -8 26 -3 8 -15 44 -26 80 -34 114 -181 584 -191 610 -4 14 -29 90
-54 170 -39 127 -89 287 -198 630 -16 52 -38 122 -47 155 l-18 60 -446 0
c-301 1 -447 -3 -447 -10z"/>
</g>
</svg>
